<svg id="Layer_1" enable-background="new 0 0 511.833 511.833" height="512" viewBox="0 0 511.833 511.833" width="512" xmlns="http://www.w3.org/2000/svg"><g><g><path d="m362.172 496.833h-212.511c-16.718 0-30.271-13.553-30.271-30.271v-421.291c0-16.718 13.553-30.271 30.271-30.271h212.512c16.718 0 30.271 13.553 30.271 30.271v421.29c0 16.719-13.553 30.272-30.272 30.272z" fill="#ff3f5c"/><path d="m362.173 15h-105.775v481.833h105.774c16.718 0 30.271-13.553 30.271-30.271v-421.291c.001-16.718-13.552-30.271-30.27-30.271z" fill="#cd2f44"/><g><circle cx="256.431" cy="436.977" fill="#00607f" r="15.099"/></g><g><g><path d="m280.764 89.195h-50.373c-8.284 0-15-6.716-15-15s6.716-15 15-15h50.373c8.284 0 15 6.716 15 15s-6.716 15-15 15z" fill="#00607f"/></g></g><path d="m280.764 59.195h-24.366v30h24.366c8.284 0 15-6.716 15-15s-6.716-15-15-15z" fill="#00485b"/><path d="m256.431 421.877c-.011 0-.022.002-.033.002v30.196c.011 0 .022.002.033.002 8.339 0 15.099-6.76 15.099-15.099s-6.76-15.101-15.099-15.101z" fill="#00485b"/><path d="m362.172 511.833h-212.511c-24.963 0-45.271-20.309-45.271-45.271v-421.291c-.001-24.962 20.308-45.271 45.271-45.271h212.512c24.963 0 45.271 20.309 45.271 45.271v421.29c0 24.963-20.309 45.272-45.272 45.272zm-212.511-481.833c-8.421 0-15.271 6.851-15.271 15.271v421.29c0 8.421 6.851 15.271 15.271 15.271h212.512c8.421 0 15.271-6.851 15.271-15.271v-421.29c0-8.421-6.851-15.271-15.271-15.271z" fill="#00607f"/><path d="m362.172 0h-105.774v30h105.774c8.421 0 15.271 6.851 15.271 15.271v421.29c0 8.421-6.851 15.271-15.271 15.271h-105.774v30h105.774c24.963 0 45.271-20.309 45.271-45.271v-421.29c.001-24.962-20.308-45.271-45.271-45.271z" fill="#00485b"/></g><g><path d="m208.584 358.021c-8.284 0-15-6.716-15-15v-117.092c0-8.284 6.716-15 15-15s15 6.716 15 15v117.092c0 8.284-6.715 15-15 15z" fill="#e3dff6"/></g><ellipse cx="208.584" cy="209.598" fill="#fff5f5" rx="41.325" ry="56.203"/><path d="m293.042 358.004c8.614.406 15.725-6.458 15.725-14.983v-92.641-.008h-30v92.225c0 8.077 6.207 15.027 14.275 15.407z" fill="#b7b3e2"/><path d="m308.571 158.974c-1.269-1.11-4.203-3.918-8.396-5.954-7.578-3.679-16.947-.654-20.229 7.105-.759 1.795-1.179 3.768-1.179 5.839v121.906h39.703l18.041-.057c6.069-.019 10.923-5.039 10.764-11.106-1.951-74.602-23.553-105.316-38.704-117.733z" fill="#e3dff6"/></g></svg>