<svg id="Capa_1" enable-background="new 0 0 501 501" height="512" viewBox="0 0 501 501" width="512" xmlns="http://www.w3.org/2000/svg"><g><path d="m490 256c0 90.891-49.494 170.222-123 212.512 0-37.659-30.529-68.188-68.188-68.188h-251.812c-29.69-40.664-47.158-90.818-46.999-145.059.403-137.237 112.32-246.715 249.535-244.224 133.217 2.419 240.464 111.165 240.464 244.959z" fill="#ce9047"/><path d="m409 185c0-8.284 6.716-15 15-15h50.481c3.645 9.722 6.69 19.737 9.09 30h-59.571c-8.284 0-15-6.716-15-15zm45 85h-35c-5.523 0-10-4.477-10-10s4.477-10 10-10h25c8.284 0 15-6.716 15-15s-6.716-15-15-15h-150c-8.284 0-15 6.716-15 15s6.716 15 15 15h85c5.523 0 10 4.477 10 10s-4.477 10-10 10h-5c-8.284 0-15 6.716-15 15s6.716 15 15 15h15c5.523 0 10 4.477 10 10s-4.477 10-10 10l20 10 20-10c-5.523 0-10-4.477-10-10s4.477-10 10-10h25c8.284 0 15-6.716 15-15s-6.716-15-15-15z" fill="#ebae56"/><path d="m367 357.091v111.421c-35.923 20.667-77.581 32.488-122 32.488-81.351 0-153.44-39.649-198-100.677v-43.233c0-38.66 31.34-70 70-70h180c38.66.001 70 31.341 70 70.001z" fill="#bbe0fb"/><path d="m367 357.091v111.421c-35.923 20.667-77.581 32.488-122 32.488-46.962 0-90.837-13.213-128.112-36.124-24.74-15.207-39.888-42.096-39.888-71.137v-36.649c0-38.66 31.34-70 70-70h150c38.66.001 70 31.341 70 70.001z" fill="#e3f0fb"/><path d="m228.333 231.183c-4.536.539-9.152.817-13.833.817h-15c-64.065 0-116-51.935-116-116 0-64.065 51.935-116 116-116h15c4.681 0 9.297.278 13.833.817-57.543 6.838-102.166 55.799-102.166 115.183 0 59.384 44.623 108.345 102.166 115.183z" fill="#99302b"/><path d="m330.5 116c0 59.474-44.759 108.494-102.43 115.214-57.671-6.72-102.43-55.74-102.43-115.214 0-59.475 44.759-108.494 102.43-115.214 57.671 6.72 102.43 55.739 102.43 115.214z" fill="#c92c2c"/><path d="m97 197.091c-13.807 0-25-11.193-25-25v-10c0-13.807 11.193-25 25-25 13.807 0 25 11.193 25 25v10c0 13.807-11.193 25-25 25z" fill="#f4e0d8"/><path d="m87 157.091v20c0 8.178 3.927 15.439 9.998 20-13.806-.001-24.998-11.194-24.998-25v-10c0-13.806 11.192-24.999 24.998-25-6.071 4.561-9.998 11.822-9.998 20zm230-20v-20c0-60.751-49.249-110-110-110-60.751 0-110 49.249-110 110v40c0 50.351 33.83 92.801 80 105.859v25.808c0 16.569 13.431 30 30 30 16.569 0 30-13.431 30-30v-25.808c33.586-9.499 60.641-34.551 72.895-66.883 2.252.666 4.637 1.024 7.105 1.024 13.807 0 25-11.193 25-25v-10c0-13.807-11.193-25-25-25z" fill="#eac0b5"/><path d="m317 117.091v40c0 50.792-34.425 93.543-81.216 106.195-9.023 2.44-18.545 2.44-27.568 0-46.791-12.652-81.216-55.403-81.216-106.195v-40c0-55.663 41.345-101.669 95-108.985 53.655 7.315 95 53.321 95 108.985z" fill="#f4e0d8"/><path d="m237.303 202.03c-8.354 8.354-19.329 12.531-30.303 12.531s-21.949-4.177-30.303-12.531c-2.929-2.93-2.929-7.678 0-10.607 2.929-2.928 7.678-2.928 10.606 0 10.861 10.861 28.532 10.861 39.394 0 2.929-2.928 7.678-2.928 10.606 0 2.929 2.93 2.929 7.678 0 10.607zm-30.303-32.199c5.475 0 10.625-2.134 14.5-6.009 2.929-2.93 2.929-7.678 0-10.607-2.929-2.928-7.678-2.928-10.606 0-1.042 1.042-2.424 1.616-3.893 1.616s-2.851-.574-3.893-1.616c-2.929-2.928-7.678-2.928-10.606 0-2.929 2.93-2.929 7.678 0 10.607 3.873 3.875 9.023 6.009 14.498 6.009z" fill="#e1a595"/><path d="m174.5 124.591c0 8.284-6.716 15-15 15s-15-6.716-15-15 6.716-15 15-15 15 6.716 15 15zm80-15c-8.284 0-15 6.716-15 15s6.716 15 15 15 15-6.716 15-15-6.716-15-15-15z" fill="#003278"/><path d="m177 117.091c0 4.142-3.358 7.5-7.5 7.5s-7.5-3.358-7.5-7.5 3.358-7.5 7.5-7.5 7.5 3.358 7.5 7.5zm87.5-7.5c-4.142 0-7.5 3.358-7.5 7.5s3.358 7.5 7.5 7.5 7.5-3.358 7.5-7.5-3.358-7.5-7.5-7.5z" fill="#fff5f5"/><path d="m127.88 106.95c-11.281 6.213-23.706 10.603-36.88 12.774v-3.724c0-64.065 51.935-116 116-116 6.159 0 12.206.48 18.105 1.405 2.553.4 2.842 3.955.397 4.79-33.003 11.267-59.307 36.996-71.356 69.629-4.856 13.153-13.984 24.361-26.266 31.126z" fill="#99302b"/><path d="m323 119.723c-28.652-4.721-53.765-19.94-71.256-41.577-13.769 5.761-28.884 8.944-44.744 8.944-15.859 0-30.975-3.183-44.744-8.944-9.581 11.851-21.448 21.777-34.931 29.107 4.024-53.971 44.377-97.77 97.075-105.98 1.342.209 3.276.557 4.602.811 53.544 10.281 93.998 57.374 93.998 113.916z" fill="#c92c2c"/><path d="m297 287.091c3.395 0 6.734.242 10 .709v205.287c-19.802 5.164-40.58 7.913-62 7.913-51.182 0-98.699-15.695-138-42.534v-170.666c3.266-.467 6.605-.709 10-.709h34l56 70.415 54-70.415z" fill="#2740af"/><path d="m284.451 293.734-35.311 11.035-32.14 10.044v29.653c0 5.478-4.421 10.338-9.9 10.34-.033 0-.167 0-.201 0-5.478-.002-9.9-4.234-9.9-9.712v-30.281l-32.141-10.044-35.311-11.035c-1.274-.398-1.808-1.908-1.068-3.018l15.55-23.325c1.855-2.782 4.977-4.453 8.321-4.453h24.65l21.244 35.406c1.266 2.111 3.273 3.735 5.663 4.325 3.832.946 7.701-.667 9.76-3.835l23.333-35.896h24.648c3.344 0 6.466 1.671 8.321 4.453l15.55 23.325c.74 1.11.206 2.62-1.068 3.018z" fill="#fff5f5"/><path d="m238.738 329.517c-3.905 3.905-10.237 3.905-14.142 0l-17.596-17.595-17.596 17.595c-3.905 3.905-10.237 3.905-14.142 0-13.668-13.668-13.668-35.829 0-49.497 3.905-3.905 10.237-3.905 14.142 0l17.596 17.595 17.596-17.595c3.905-3.905 10.237-3.905 14.142 0 13.668 13.668 13.668 35.829 0 49.497z" fill="#003278"/><path d="m307 377.091v115.996c-6.563 1.712-13.234 3.158-20 4.327v-120.323c0-5.523 4.477-10 10-10s10 4.477 10 10zm-190-10c-5.523 0-10 4.477-10 10v81.375c6.452 4.406 13.125 8.512 20 12.297v-93.672c0-5.523-4.477-10-10-10zm80-22.16v151.369c6.576 1.306 13.246 2.349 20 3.117v-154.951l-6.104 7.96c-1.979 2.581-5.857 2.615-7.881.07z" fill="#003278"/><path d="m391.111 373.75c0 16.492-13.369 29.861-29.861 29.861h-59.722c-16.492 0-29.861-13.369-29.861-29.861 0-16.492 13.369-29.861 29.861-29.861h59.722c16.492 0 29.861 13.369 29.861 29.861z" fill="#f02399"/><path d="m418.444 373.75c0 16.492-13.369 29.861-29.861 29.861h-59.722c-16.492 0-29.861-13.369-29.861-29.861 0-16.492 13.369-29.861 29.861-29.861h59.722c16.492 0 29.861 13.369 29.861 29.861z" fill="#fd4fb6"/><path d="m349 433.472v-5.972h66v5.972c0 9.895-8.022 17.917-17.917 17.917h-30.167c-9.894 0-17.916-8.022-17.916-17.917z" fill="#e3ac6e"/><path d="m454.616 439.444h-208.232c-12.424 0-22.495-10.072-22.495-22.495 0-7.366 5.972-13.338 13.338-13.338h226.546c7.366 0 13.338 5.972 13.338 13.338 0 12.424-10.071 22.495-22.495 22.495z" fill="#d98800"/><path d="m278.273 439.444h-31.889c-12.424 0-22.495-10.071-22.495-22.495 0-7.366 5.972-13.338 13.338-13.338h31.889c-7.366 0-13.338 5.972-13.338 13.338 0 12.424 10.071 22.495 22.495 22.495z" fill="#c98001"/><path d="m381.651 351.944c-5.338 4.997-12.512 8.056-20.401 8.056h-9.75c-1.381 0-2.5 1.119-2.5 2.5 0 4.451-3.878 7.997-8.439 7.443-3.806-.462-6.561-3.893-6.561-7.727v-.03c0-1.207-.978-2.186-2.186-2.186-4.316 0-7.814 3.499-7.814 7.814v4.686c0 4.219-3.483 7.624-7.731 7.497-4.105-.123-7.269-3.704-7.269-7.811v-2.613c-1.061.375-2.23.519-3.449.369-3.797-.468-6.551-3.876-6.551-7.702v-.138c0-1.229-.896-2.271-2.111-2.461-6.046-.943-11.491-3.7-15.762-7.697 5.338-4.996 12.512-8.055 20.4-8.055h59.722c7.89 0 15.064 3.059 20.402 8.055z" fill="#c92c2c"/><path d="m361.25 343.889c7.889 0 15.063 3.059 20.401 8.055-5.338 4.997-12.512 8.056-20.401 8.056h-9.75c-1.381 0-2.5 1.119-2.5 2.5 0 4.451-3.878 7.997-8.439 7.443-3.806-.462-6.561-3.893-6.561-7.728v-.03c0-1.207-.979-2.186-2.186-2.186-4.316 0-7.814 3.499-7.814 7.814v4.686c0 4.219-3.483 7.624-7.731 7.497-4.105-.123-7.269-3.704-7.269-7.811v-2.613c-1.061.375-2.23.519-3.449.369-2.429-.299-4.432-1.803-5.559-3.849 3.38-12.778 15.02-22.199 28.86-22.203z" fill="#f52c2c"/><path d="m456.806 325.972h-5.972c0-3.298-2.674-5.972-5.972-5.972h-83.612c-3.298 0-5.972 2.674-5.972 5.972v29.861c0 26.387 21.391 47.778 47.778 47.778 20.051 0 37.216-12.352 44.304-29.861h9.446c13.172 0 23.889-10.717 23.889-23.889s-10.717-23.889-23.889-23.889zm0 35.834h-6.343c.244-1.957.37-3.95.37-5.972v-17.917h5.972c6.586 0 11.944 5.358 11.944 11.945s-5.357 11.944-11.943 11.944z" fill="#acd1fd"/><path d="m474.722 382.111v3.583c0 9.895-8.022 17.917-17.917 17.917h-107.5c-9.895 0-17.917-8.022-17.917-17.917v-3.583c0-1.319 1.07-2.389 2.389-2.389h27.893c-4.065-7.028-6.393-15.186-6.393-23.889v-29.861c0-3.298 2.674-5.972 5.972-5.972h23.889c-3.298 0-5.972 2.674-5.972 5.972v29.861.148c.024 7.787 6.503 14.019 14.29 14.019h40.3c2.689 0 5.077 2.016 5.234 4.7.135 2.313-1.304 4.31-3.345 5.022h36.687c1.321 0 2.39 1.07 2.39 2.389z" fill="#81bdfd"/><path d="m456.806 403.611h-71.667c-9.895 0-17.917-8.022-17.917-17.917v-3.583c0-1.319 1.07-2.389 2.389-2.389h102.722c1.319 0 2.389 1.07 2.389 2.389v3.583c0 9.896-8.021 17.917-17.916 17.917z" fill="#91cefb"/><path d="m488.061 418.343h-266.122c-7.146 0-12.939-5.972-12.939-13.338 0-7.366 5.793-13.338 12.939-13.338h266.122c7.146 0 12.939 5.972 12.939 13.338 0 7.366-5.793 13.338-12.939 13.338z" fill="#f4aa39"/><path d="m488.061 418.343h-236.122c-7.146 0-12.939-5.971-12.939-13.338 0-7.366 5.793-13.338 12.939-13.338h236.122c7.146 0 12.939 5.972 12.939 13.338 0 7.366-5.793 13.338-12.939 13.338z" fill="#fdbf43"/><path d="m367.222 439.444c0-6.597 5.348-11.944 11.944-11.944h23.889c6.597 0 11.944 5.348 11.944 11.944 0 6.597-5.348 11.944-11.944 11.944h-35.833z" fill="#eabe8d"/></g></svg>